<svg id="Layer_1" data-name="Layer 1" xmlns="http://www.w3.org/2000/svg" xmlns:xlink="http://www.w3.org/1999/xlink" viewBox="0 0 600 95"><defs><radialGradient id="GradientFill_1" cx="31.89" cy="24.44" r="112.22" gradientUnits="userSpaceOnUse"><stop offset="0" stop-color="#5fb0e2"/><stop offset="0.09" stop-color="#45a1d7"/><stop offset="0.21" stop-color="#2c93cd"/><stop offset="0.34" stop-color="#1888c4"/><stop offset="0.49" stop-color="#0b80be"/><stop offset="0.67" stop-color="#027bbb"/><stop offset="1" stop-color="#007aba"/></radialGradient></defs><title>DO_Logo_Horizontal_Blue</title><path d="M11.3,91C42.1,71.25,77,85.48,94.39,95,70.31,85.49,35,83.26,11.3,91Z" style="fill:#5fb0e2;fill-rule:evenodd"/><path d="M65.36,0.43A36.42,36.42,0,0,1,98.58,21.68H87a28.11,28.11,0,0,0-43.3-.31c0.28-.22.55-0.44,0.85-0.65,12.1-8.64,28.23.88,28.23,0.88s-15.33-4.43-25.7,2.84-8.7,21.82-8.7,21.82-0.07-.19-0.17-0.54l0.14,0.5a17.62,17.62,0,0,0-8.78-3.34,35.66,35.66,0,0,1-.6-6.5A36.16,36.16,0,0,1,65.36.43h0ZM18.82,82.63V79.53c9.63-7.1,27.34-16.35,48.63-9.68,32.36,10.14,53,23.94,78,17.73s27.22-19.87,27.22-19.87S168.22,87,143.58,91.23,96.24,90.72,67.37,80C47.89,72.7,29,78.33,18.82,82.63h0Zm0-6.24a55.52,55.52,0,0,1,5.29-3.22,13.81,13.81,0,0,1-2.27-1.79,16.08,16.08,0,0,1-3-4.12v6.68L19,74.13A12.54,12.54,0,0,0,20,75q-0.62-.29-1.2-0.63v2h0Zm0-31.16V33.8a26.69,26.69,0,0,1,7.46-1.41A38.83,38.83,0,0,0,26.65,43,17.12,17.12,0,0,0,18.82,45.24Zm0-11.44V45.24a16.73,16.73,0,0,0,0,29.12v2c-2,1.38-4,2.86-5.69,4.12A26,26,0,0,1,18.82,33.8h0Zm0,33.46C15.58,61,16.7,53.85,16.7,53.85s-5.49,12.59,2.13,20.09V67.26h0Zm0,12.27A57.58,57.58,0,0,0,11,86.34c0,0.13,2.91-1.63,7.82-3.7V79.53Z" style="fill-rule:evenodd;fill:url(#GradientFill_1)"/><path d="M100.22,74.61s15.45,7.91,30,6.62,18.94-6.44,18.94-6.44-5.33,9.84-19.31,10.39S100.22,75,100.22,74.61Z" style="fill:#5fb0e2;fill-rule:evenodd"/><rect x="88.37" y="24.65" width="12.98" height="12.98" style="fill:#5fb0e2"/><rect x="139.94" y="60.62" width="10.04" height="10.04" style="fill:#0088cf"/><rect x="104.02" y="12.75" width="17.31" height="17.31" style="fill:#5fb0e2"/><rect x="154.28" y="42.71" width="17.32" height="17.31" style="fill:#0088cf"/><rect x="122.99" y="31.39" width="9.65" height="9.65" style="fill:#5fb0e2"/><rect x="129.45" y="50.4" width="9.65" height="9.65" style="fill:#5fb0e2"/><rect x="109.13" y="51.37" width="9.65" height="9.65" style="fill:#0088cf"/><rect x="142.97" y="31.73" width="9.65" height="9.65" style="fill:#0088cf"/><path d="M250.12,51.05a29.86,29.86,0,0,1-2,11.15,25,25,0,0,1-14.51,14.43,31,31,0,0,1-11.42,2H201.09V23.44h21.08a30.74,30.74,0,0,1,11.42,2,25.83,25.83,0,0,1,8.82,5.69,25.42,25.42,0,0,1,5.69,8.73A29.86,29.86,0,0,1,250.12,51.05Zm-10.5,0a25.35,25.35,0,0,0-1.22-8.15,17.28,17.28,0,0,0-3.47-6.11A15,15,0,0,0,229.44,33a18.86,18.86,0,0,0-7.27-1.34H211.44V70.49h10.73a18.84,18.84,0,0,0,7.27-1.34,15,15,0,0,0,5.48-3.84,17.28,17.28,0,0,0,3.47-6.11A25.35,25.35,0,0,0,239.62,51.05Z" style="fill:#0a8ccc"/><path d="M265.28,28.06a5.38,5.38,0,0,1-.5,2.29,6.23,6.23,0,0,1-3.25,3.15,5.91,5.91,0,0,1-2.37.48,5.68,5.68,0,0,1-2.31-.48,6.09,6.09,0,0,1-3.17-3.15,5.55,5.55,0,0,1-.48-2.29,5.92,5.92,0,0,1,.48-2.37A6.05,6.05,0,0,1,255,23.79a6.12,6.12,0,0,1,1.89-1.28,5.69,5.69,0,0,1,2.31-.48,5.93,5.93,0,0,1,2.37.48,6.31,6.31,0,0,1,1.93,1.28,6.17,6.17,0,0,1,1.32,1.91A5.73,5.73,0,0,1,265.28,28.06Zm-1.41,11.42V78.66h-9.43V39.48h9.43Z" style="fill:#0a8ccc"/><path d="M284.26,38.79a20.84,20.84,0,0,1,4.73.52,16.15,16.15,0,0,1,4,1.51H304.3v3.51a2,2,0,0,1-.46,1.38,2.72,2.72,0,0,1-1.57.69l-3.51.65a12.22,12.22,0,0,1,.59,2.1,12.52,12.52,0,0,1,.21,2.33,11.65,11.65,0,0,1-1.16,5.25,11.77,11.77,0,0,1-3.21,4,14.9,14.9,0,0,1-4.85,2.54,19.92,19.92,0,0,1-6.09.9,21.84,21.84,0,0,1-4.31-.42q-1.83,1.12-1.83,2.5A1.84,1.84,0,0,0,279.2,68a8.87,8.87,0,0,0,2.86.79,31.44,31.44,0,0,0,4,.23q2.25,0,4.62.19a36.3,36.3,0,0,1,4.62.67,13.52,13.52,0,0,1,4,1.51,8.08,8.08,0,0,1,2.86,2.82,8.67,8.67,0,0,1,1.09,4.58A10.81,10.81,0,0,1,302,83.82a13.59,13.59,0,0,1-3.7,4.37,19.35,19.35,0,0,1-5.94,3.08,25.36,25.36,0,0,1-8,1.17,30.89,30.89,0,0,1-7.75-.86,18.12,18.12,0,0,1-5.44-2.29A9.94,9.94,0,0,1,268,86a7.74,7.74,0,0,1-1.07-3.89,6.66,6.66,0,0,1,1.68-4.62,11.52,11.52,0,0,1,4.66-3,6.48,6.48,0,0,1-2.33-2.14,6.22,6.22,0,0,1-.88-3.47,5.82,5.82,0,0,1,.31-1.81,7.22,7.22,0,0,1,.94-1.85,9.14,9.14,0,0,1,1.58-1.74A10.94,10.94,0,0,1,275.09,62a12.36,12.36,0,0,1-4.68-4.28,11.42,11.42,0,0,1-1.7-6.26,11.5,11.5,0,0,1,4.41-9.26,14.81,14.81,0,0,1,4.93-2.54A20.94,20.94,0,0,1,284.26,38.79ZM294.61,80.3a2.69,2.69,0,0,0-.69-1.91A4.51,4.51,0,0,0,292,77.24a13.56,13.56,0,0,0-2.77-.6,27.55,27.55,0,0,0-3.36-.2h-3.67a15.61,15.61,0,0,1-3.65-.42A8.53,8.53,0,0,0,276,78.1a4.28,4.28,0,0,0-1,2.77,3.8,3.8,0,0,0,.52,1.93,4.3,4.3,0,0,0,1.64,1.55,9.76,9.76,0,0,0,2.92,1,22.55,22.55,0,0,0,4.39.36,22,22,0,0,0,4.54-.41,10.82,10.82,0,0,0,3.15-1.13A4.81,4.81,0,0,0,294,82.47,4.26,4.26,0,0,0,294.61,80.3ZM284.26,58.11a8.85,8.85,0,0,0,3.05-.48,6,6,0,0,0,2.16-1.32,5.42,5.42,0,0,0,1.3-2,7.41,7.41,0,0,0,.44-2.6,6.14,6.14,0,0,0-1.74-4.6,8.84,8.84,0,0,0-10.42,0,6.14,6.14,0,0,0-1.74,4.6,7.29,7.29,0,0,0,.44,2.56,5.59,5.59,0,0,0,1.3,2,5.83,5.83,0,0,0,2.18,1.34A8.88,8.88,0,0,0,284.26,58.11Z" style="fill:#0a8ccc"/><path d="M317.86,28.06a5.36,5.36,0,0,1-.5,2.29,6.23,6.23,0,0,1-3.24,3.15,5.91,5.91,0,0,1-2.37.48,5.67,5.67,0,0,1-2.31-.48,6.11,6.11,0,0,1-1.89-1.28,6.17,6.17,0,0,1-1.28-1.87,5.55,5.55,0,0,1-.48-2.29,5.92,5.92,0,0,1,.48-2.37,6.05,6.05,0,0,1,1.28-1.91,6.12,6.12,0,0,1,1.89-1.28,5.69,5.69,0,0,1,2.31-.48,5.93,5.93,0,0,1,2.37.48A6.29,6.29,0,0,1,316,23.79a6.15,6.15,0,0,1,1.32,1.91A5.71,5.71,0,0,1,317.86,28.06Zm-1.41,11.42V78.66H307V39.48h9.43Z" style="fill:#0a8ccc"/><path d="M336.15,79.27q-5.08,0-7.83-2.88t-2.75-8V46.54h-4a1.81,1.81,0,0,1-1.87-2V40.82l6.3-1,2-10.69a1.89,1.89,0,0,1,.71-1.18,2.24,2.24,0,0,1,1.39-.42H335V39.82h10.31v6.72H335V67.78a4.16,4.16,0,0,0,.92,2.86,3.11,3.11,0,0,0,2.44,1,4.43,4.43,0,0,0,1.47-.21,8.13,8.13,0,0,0,1-.44c0.29-.15.55-0.3,0.78-0.44a1.31,1.31,0,0,1,.69-0.21,1.08,1.08,0,0,1,.69.21,3.25,3.25,0,0,1,.57.63l2.83,4.58a14.27,14.27,0,0,1-4.74,2.6A17.61,17.61,0,0,1,336.15,79.27Z" style="fill:#0a8ccc"/><path d="M379.72,78.66h-4.24a4.56,4.56,0,0,1-2.1-.4,2.57,2.57,0,0,1-1.15-1.62l-0.84-2.79a32.23,32.23,0,0,1-2.92,2.35,17.76,17.76,0,0,1-3,1.7,15.13,15.13,0,0,1-3.25,1,19.58,19.58,0,0,1-3.82.34,15,15,0,0,1-4.58-.67,9.88,9.88,0,0,1-3.61-2,9.13,9.13,0,0,1-2.35-3.33,11.87,11.87,0,0,1-.84-4.64,9.16,9.16,0,0,1,1.17-4.39,11,11,0,0,1,3.88-3.91,24.71,24.71,0,0,1,7.22-2.89,46.07,46.07,0,0,1,11.19-1.15V54q0-4-1.66-5.87A6.07,6.07,0,0,0,364,46.2a11.71,11.71,0,0,0-3.82.53,14.81,14.81,0,0,0-2.65,1.2q-1.13.67-2.08,1.2a4.23,4.23,0,0,1-2.1.53,2.73,2.73,0,0,1-1.64-.5A3.89,3.89,0,0,1,350.62,48l-1.72-3a23.3,23.3,0,0,1,16.3-6.19,15.77,15.77,0,0,1,6.13,1.13A13,13,0,0,1,375.9,43a13.41,13.41,0,0,1,2.84,4.79,18.4,18.4,0,0,1,1,6.11V78.66Zm-18.33-5.88a12.67,12.67,0,0,0,2.67-.26,10.27,10.27,0,0,0,2.31-.79,12.37,12.37,0,0,0,2.1-1.3,19,19,0,0,0,2-1.82V62a38.32,38.32,0,0,0-6.89.52,18.25,18.25,0,0,0-4.45,1.33,5.72,5.72,0,0,0-2.39,1.88,4.19,4.19,0,0,0-.71,2.35,4.14,4.14,0,0,0,1.47,3.58A6.34,6.34,0,0,0,361.39,72.78Z" style="fill:#0a8ccc"/><path d="M395.22,21.92V78.66h-9.43V21.92h9.43Z" style="fill:#0a8ccc"/><path d="M455.55,51.05a30.62,30.62,0,0,1-2,11.25,26.64,26.64,0,0,1-5.69,9,25.75,25.75,0,0,1-8.82,5.9,31.86,31.86,0,0,1-22.85,0,25.9,25.9,0,0,1-8.86-5.9,26.48,26.48,0,0,1-5.71-9,30.59,30.59,0,0,1-2-11.25,30.6,30.6,0,0,1,2-11.25,26.5,26.5,0,0,1,5.71-9,25.92,25.92,0,0,1,8.86-5.9,29.9,29.9,0,0,1,11.44-2.12A29.53,29.53,0,0,1,439,25a26.15,26.15,0,0,1,8.82,5.9,26.45,26.45,0,0,1,5.69,8.94A30.62,30.62,0,0,1,455.55,51.05Zm-10.54,0a25.72,25.72,0,0,0-1.2-8.15,17.24,17.24,0,0,0-3.46-6.13,14.88,14.88,0,0,0-5.48-3.86,20.52,20.52,0,0,0-14.57,0,15,15,0,0,0-5.52,3.86,17.29,17.29,0,0,0-3.49,6.13,25.32,25.32,0,0,0-1.22,8.15,25.32,25.32,0,0,0,1.22,8.15,17.1,17.1,0,0,0,3.49,6.11,15.1,15.1,0,0,0,5.52,3.84,20.52,20.52,0,0,0,14.57,0,15,15,0,0,0,5.48-3.84,17,17,0,0,0,3.46-6.11A25.72,25.72,0,0,0,445,51.05Z" style="fill:#0a8ccc"/><path d="M486.83,47.77a4.71,4.71,0,0,1-.82.84,1.9,1.9,0,0,1-1.17.31,2.6,2.6,0,0,1-1.41-.44q-0.69-.44-1.64-1a12.3,12.3,0,0,0-2.27-1,10.47,10.47,0,0,0-3.27-.44,10,10,0,0,0-4.35.9,8.25,8.25,0,0,0-3.11,2.58,11.6,11.6,0,0,0-1.85,4.07,21.8,21.8,0,0,0-.61,5.4,21.19,21.19,0,0,0,.67,5.58,11.92,11.92,0,0,0,1.93,4.1A8.29,8.29,0,0,0,472,71.19a9.26,9.26,0,0,0,4,.86,10,10,0,0,0,3.65-.55A11.44,11.44,0,0,0,482,70.28q1-.67,1.66-1.22a2.5,2.5,0,0,1,1.58-.55,1.92,1.92,0,0,1,1.72.88l2.71,3.44a17,17,0,0,1-3.4,3.07,18.3,18.3,0,0,1-3.8,2,19.28,19.28,0,0,1-4.07,1.05,29,29,0,0,1-4.16.31,17.38,17.38,0,0,1-6.83-1.36,15.93,15.93,0,0,1-5.59-4,19,19,0,0,1-3.78-6.36A24.55,24.55,0,0,1,456.66,59a24.92,24.92,0,0,1,1.24-8,18.13,18.13,0,0,1,3.65-6.38,16.73,16.73,0,0,1,6-4.22,20.52,20.52,0,0,1,8.17-1.53,19.45,19.45,0,0,1,7.69,1.41,18.81,18.81,0,0,1,5.94,4Z" style="fill:#0a8ccc"/><path d="M508.09,38.87a19,19,0,0,1,6.82,1.18,15,15,0,0,1,5.37,3.46,15.81,15.81,0,0,1,3.51,5.58A21.06,21.06,0,0,1,525,56.63,13.86,13.86,0,0,1,525,58.4a2.87,2.87,0,0,1-.34,1.11,1.4,1.4,0,0,1-.67.57,2.85,2.85,0,0,1-1.07.17H498.66q0.42,6,3.25,8.86a10.12,10.12,0,0,0,7.48,2.83,13,13,0,0,0,4-.53,18.53,18.53,0,0,0,2.9-1.18q1.24-.65,2.18-1.18a3.66,3.66,0,0,1,1.81-.53,2,2,0,0,1,1,.23,2.2,2.2,0,0,1,.73.65l2.75,3.44a15.69,15.69,0,0,1-3.51,3.07,19.62,19.62,0,0,1-4.07,2,22.22,22.22,0,0,1-4.32,1.05,31,31,0,0,1-4.26.31,20.94,20.94,0,0,1-7.6-1.36,17,17,0,0,1-6.11-4,18.81,18.81,0,0,1-4.09-6.57,25.42,25.42,0,0,1-1.49-9.07,21.68,21.68,0,0,1,1.3-7.54,18.14,18.14,0,0,1,3.72-6.15,17.53,17.53,0,0,1,5.92-4.14A19.49,19.49,0,0,1,508.09,38.87Zm0.19,6.76A8.72,8.72,0,0,0,501.83,48a11.48,11.48,0,0,0-3,6.61h17.72a11.79,11.79,0,0,0-.5-3.46,8,8,0,0,0-1.53-2.84,7.22,7.22,0,0,0-2.6-1.93A8.85,8.85,0,0,0,508.29,45.63Z" style="fill:#0a8ccc"/><path d="M559.61,78.66h-4.24a4.56,4.56,0,0,1-2.1-.4,2.57,2.57,0,0,1-1.15-1.62l-0.84-2.79a32.23,32.23,0,0,1-2.92,2.35,17.76,17.76,0,0,1-3,1.7,15.13,15.13,0,0,1-3.25,1,19.58,19.58,0,0,1-3.82.34,15,15,0,0,1-4.58-.67,9.88,9.88,0,0,1-3.61-2,9.13,9.13,0,0,1-2.35-3.33,11.87,11.87,0,0,1-.84-4.64,9.16,9.16,0,0,1,1.17-4.39A11,11,0,0,1,532,60.32a24.71,24.71,0,0,1,7.22-2.89,46.07,46.07,0,0,1,11.19-1.15V54q0-4-1.66-5.87a6.07,6.07,0,0,0-4.83-1.9,11.71,11.71,0,0,0-3.82.53,14.81,14.81,0,0,0-2.65,1.2q-1.13.67-2.08,1.2a4.23,4.23,0,0,1-2.1.53,2.73,2.73,0,0,1-1.64-.5A3.89,3.89,0,0,1,530.51,48l-1.72-3a23.3,23.3,0,0,1,16.3-6.19,15.77,15.77,0,0,1,6.13,1.13A13,13,0,0,1,555.79,43a13.41,13.41,0,0,1,2.84,4.79,18.4,18.4,0,0,1,1,6.11V78.66Zm-18.33-5.88a12.67,12.67,0,0,0,2.67-.26,10.27,10.27,0,0,0,2.31-.79,12.37,12.37,0,0,0,2.1-1.3,19,19,0,0,0,2-1.82V62a38.32,38.32,0,0,0-6.89.52,18.25,18.25,0,0,0-4.45,1.33,5.72,5.72,0,0,0-2.39,1.88,4.19,4.19,0,0,0-.71,2.35,4.14,4.14,0,0,0,1.47,3.58A6.34,6.34,0,0,0,541.28,72.78Z" style="fill:#0a8ccc"/><path d="M565.07,78.66V39.48h5.77a2.32,2.32,0,0,1,2.41,1.72l0.65,3.09a21.47,21.47,0,0,1,2.5-2.21,17.5,17.5,0,0,1,2.79-1.72,14.24,14.24,0,0,1,3.15-1.11,16.55,16.55,0,0,1,3.67-.38A14,14,0,0,1,591.68,40,11.24,11.24,0,0,1,595.82,43a13.44,13.44,0,0,1,2.52,4.7,20,20,0,0,1,.86,6V78.66h-9.43V53.72a8.37,8.37,0,0,0-1.66-5.56,6.16,6.16,0,0,0-5-2,9.82,9.82,0,0,0-4.58,1.11,16.44,16.44,0,0,0-4,3V78.66h-9.43Z" style="fill:#0a8ccc"/></svg>