<?xml version="1.0" encoding="utf-8"?>
<!-- Generator: Adobe Illustrator 19.2.0, SVG Export Plug-In . SVG Version: 6.00 Build 0)  -->
<svg version="1.1" id="Layer_1" xmlns="http://www.w3.org/2000/svg" xmlns:xlink="http://www.w3.org/1999/xlink" x="0px" y="0px"
	 viewBox="0 0 75.4 29.2" style="enable-background:new 0 0 75.4 29.2;" xml:space="preserve">
<style type="text/css">
	.st0{fill:#E72D2B;}
</style>
<polygon class="st0" points="51.3,3 51.3,22.7 57.2,22.7 57.2,19.7 55.3,19.7 55.3,0 51.3,0 "/>
<path class="st0" d="M0,19.7h2v-9.5H0V7.6l2-0.3V4.6C2,1.4,2.7,0,6.8,0c0.9,0,1.9,0.1,2.8,0.3L9.1,3.5C8.5,3.4,8.2,3.4,7.8,3.4
	C6.3,3.4,6,3.5,6,4.9v2.3h3v2.9H6v9.5h2v3l-8,0L0,19.7L0,19.7z"/>
<path class="st0" d="M49.3,18.7c-0.6,0.1-1.2,0.1-1.6,0.1c-1.6,0-1.5-0.5-1.5-2v-6.6h3.1V7.2h-3.1V0h-4v17.6c0,3.5,0.9,5,4.6,5
	c0.9,0,2.1-0.2,3-0.4L49.3,18.7z"/>
<path class="st0" d="M73.9,19.7c0.8,0,1.5,0.7,1.5,1.5s-0.7,1.5-1.5,1.5c-0.8,0-1.5-0.7-1.5-1.5C72.4,20.4,73.1,19.7,73.9,19.7
	 M73.9,22.4c0.7,0,1.3-0.6,1.3-1.3s-0.6-1.2-1.3-1.2c-0.7,0-1.2,0.5-1.2,1.2C72.7,21.9,73.2,22.4,73.9,22.4 M74.2,21.9l-0.3-0.4
	h-0.2v0.4h-0.3v-1.5H74c0.4,0,0.6,0.2,0.6,0.5c0,0.2-0.1,0.4-0.3,0.5l0.4,0.5L74.2,21.9L74.2,21.9z M73.7,21.2H74
	c0.2,0,0.3-0.1,0.3-0.2c0-0.2-0.1-0.2-0.2-0.2h-0.3C73.7,20.7,73.7,21.2,73.7,21.2z"/>
<path class="st0" d="M37.4,10.2V9.6c-1.2-0.2-2.4-0.2-3-0.2c-1.8,0-2.1,1-2.1,1.5c0,0.7,0.3,1.2,2.3,1.6c2.9,0.7,5.8,1.3,5.8,5
	c0,3.4-1.8,5.2-5.5,5.2c-2.5,0-4.9-0.5-6.7-1v-3h3l0,0.5c1.3,0.2,2.6,0.2,3.3,0.2c2,0,2.3-1.1,2.3-1.6c0-0.8-0.6-1.2-2.4-1.5
	c-3.5-0.6-6.2-1.8-6.2-5.3c0-3.3,2.2-4.6,5.9-4.6c2.5,0,4.4,0.4,6.3,0.9v2.9L37.4,10.2L37.4,10.2z"/>
<path class="st0" d="M19.2,12.8l-0.3-0.3l-1.5,1.3c-0.1,0-0.2,0-0.2,0c-0.4,0-0.7,0.3-0.7,0.8s0.3,0.8,0.7,0.8
	c0.4,0,0.7-0.3,0.7-0.8c0-0.1,0-0.2,0-0.2L19.2,12.8z"/>
<path class="st0" d="M25.2,18.7l0-12.3h-4v1.2c-0.8-0.5-1.7-0.8-2.7-1h0V5.2h0.5v-1h-4v1h0.5v1.4h0c-3.8,0.7-6.7,4-6.7,8
	c0,4.5,3.6,8.1,8.1,8.1c1.5,0,3-0.4,4.2-1.2l0.7,1.2h4.2v-4H25.2z M17.3,18.7v-0.5h-0.5v0.5c-2.1-0.1-3.8-1.8-3.9-4h0.5v-0.5h-0.5
	c0.1-2.1,1.8-3.8,3.9-3.9v0.5h0.5v-0.5c2.1,0.1,3.8,1.7,3.9,3.8v0.1h-0.5v0.5h0.5v0.1C21.1,17,19.4,18.6,17.3,18.7z"/>
<path class="st0" d="M67.3,7.2h8.2v2.9h-2l-5,12.3c-1.4,3.5-3.8,6.7-7.4,6.7c-0.9,0-2.1-0.1-2.9-0.3l0.4-3.6
	c0.5,0.1,1.2,0.2,1.6,0.2c1.7,0,3.5-1,4.1-2.8l-5.1-12.5h-2V7.2h8.2v2.9h-2l2.9,7.1l0,0l2.9-7.1h-1.9V7.2z"/>
</svg>
